<?xml version="1.0" encoding="utf-8"?>
<!-- Generator: Adobe Illustrator 19.2.0, SVG Export Plug-In . SVG Version: 6.00 Build 0)  -->
<svg version="1.0" id="Layer_1" xmlns="http://www.w3.org/2000/svg" xmlns:xlink="http://www.w3.org/1999/xlink" x="0px" y="0px"
	 viewBox="0 0 368.7 113.2" style="enable-background:new 0 0 368.7 113.2;" xml:space="preserve">
<style type="text/css">
	.st0{fill:#FFFFFF;}
</style>
<g>
	<path class="st0" d="M41.3,59.7l5.1,0.7c-7.7,2.8-21.6,16.9-27,23.2c-1.1,1.4-1.9,2.2-2.1,2C14.5,80.6,10.4,75.4,1,68.4
		C-5.5,63.3,20.5,29,53.9,4.8c0,0,6.7-4.9,6.7-4.8c1.6,2.8,4,4.4,6.4,5.6c0,0.1-0.4,0.4-1.2,1C60.2,11.2,44.2,39.5,44,45.4
		c-2.1-2.4-5.4-4.5-9.1-5.3c0.7-1.6,1.7-4.7,5.8-12.1c-24.8,21.3-33.5,39.7-29,45l2.1,2.7c1.5,1.7,1.8,2.2,2.4,1.7
		C22.6,71.1,40.2,59.5,41.3,59.7z"/>
	<path class="st0" d="M45.9,42.4c7.7,0.4,13.2-2.4,13.8-2.8c-2.9,5.2-5.6,9.8-8.3,14.4c4.8-5.3,10.7-11.6,12.1-12.6l3.6,1.1
		c3.2,1.3,5.6,1.1,8.7-1.3c0.4-0.3-0.2,0.4-0.5,0.6C71.6,48.5,64.9,58.2,61,65.3c0.5,1,0.9,1.9,1,1.8c0.9-0.8,9.9-6.3,11.7-7.2
		l3.3,0.5c-3.9,2.9-8.6,6.3-12,9.8c-0.2,0.3-0.6,0.6-0.8,0.8l-6.6-0.1l-4.4-8.6c3.7-2.7,8.6-12.9,10.2-16.4c0.1-0.1,0-0.2,0.1-0.3
		L63,46c-8.5,8.3-15.5,17.7-22.3,27.2l-4.5,7.9l4.8-3h2.5c-4.7,4.8-7.1,8.1-7.3,7.5l-6-9.8c5.4-9.4,10.9-18.8,16.2-28.2
		C48.5,44.1,45.9,42.4,45.9,42.4z"/>
	<path class="st0" d="M95.3,42.3c3.1,1.3,6.5,1.4,9.6-1c0.4-0.3-0.2,0.4-0.4,0.6c-5.8,9.9-11.4,19.7-16.9,29.7
		c4.5-3.8,10.4-8.5,15.2-11.7l3.3,0.5c-1.8,1.4-3.7,2.9-5.4,4.5c-5.7,5.2-13.9,12.1-19,18.1c-0.3,0.5-0.5,0.8-0.6,1.3l-8.6,16.4
		c-5.7,4.1-11.4,8.5-15.5,12.6l-8.2-15.3l0.7-1.2c2-3.5-0.6-5.2-0.6-5.2c8.3,0.5,14-2.8,14-2.8l-6.9,12.4l3.1,6.3l16.9-30.5
		c-5.6,4.6-8.1,10.1-9,8.6l-6-9.8L77,47.7c2.1-3.6-0.5-5.2-0.5-5.2c8.3,0.5,13.8-2.8,13.8-2.8L68.7,77.9c3.2-3.2,6.8-5.2,10.2-6.4
		C84.4,61.7,90,52.2,95.3,42.3z"/>
	<path class="st0" d="M108.2,47.8c2.1-3.7-0.6-5.4-0.6-5.4c8.6,0.5,14.4-2.9,14.4-2.9l-5.1,8.9c4.9-4.1,9.2-7.2,9.2-7.2
		c3.6,1.9,7.8,1.5,10.5-0.1c0,0-10,16.9-16.4,28.4c3.3-1.7,6.3-3.5,8.6-5.4c3.2-2.7,5.7-4.3,5.7-4.3l3.4,0.5
		c-3.1,2.2-5.9,4.7-8.5,7.2c-2.9,2.9-7.5,5.2-11.9,6.8l-1.6,3.4l-6.9,5l-6.5-6.7l1-1.5c0.1-0.2,4-0.6,6.6-1.9l13.9-25
		c0.2-0.5,0.5-1,0.5-1.6v-0.1c-6,4.9-11.1,10.6-14.7,14.8L82,110.2l-5.6-12.3l2.2,1.7L108.2,47.8z"/>
	<path class="st0" d="M148.3,23.1c4.4-0.3,1.4,0.1,4.9-0.2l2-3.4c2-3.5-0.6-5.2-0.6-5.2c8.5,0.5,14-2.8,14-2.8l-6.3,10.9
		c2,0,4.2,0,6.6,0.1l5.3,3.8c-4.5,0.1-9.6,0.4-14.7,0.9l-28.9,50.7c9-9.1,22.8-16.9,22.8-16.9l-0.7,4.3c-13.5,7.5-23,22-23.9,20.3
		l-6-9.8c13.2-23.2,17.6-30.5,27.3-47.6c-4.6,0.6-2.3,0.4-6.3,1L148.3,23.1z"/>
	<path class="st0" d="M181,60.3c-4.2,3.1-8.3,7-11.5,10.6h-5.3l-4,7l-11.1,8l-10.3-9.6c4.6-7.7,11.4-21,16-28.8
		c2-3.6-0.5-5.2-0.5-5.2c7.7,0.5,13.2-2.3,13.8-2.7l0.1-0.1l-0.1,0.1c0.2-0.1,0.2-0.1,0.2-0.1s-0.1,0.1,0,0.1
		c4.5,3.1,8.1,5.2,12.9,1.6c0.3-0.2-0.3,0.4-0.6,0.7l-13.2,23.4c0.3,1.2,0.6,2.4,0.6,2.3c5.1-4.6,9.6-7.7,9.6-7.7L181,60.3z
		 M154.1,73.5l5.6-10.1l-0.4-4.3c4.4-3.2,9.9-13.2,9.9-13.2c-2.4-1.3-3.2-2.5-3.7-1.9c-5.2,8.5-14.8,27.3-19.8,35.9L154.1,73.5z"/>
	<path class="st0" d="M237.1,20.1c-12,9.8-27.8,23.6-33.6,31.1c5.2,0.6,17.5-1.2,24.5-5.5h0.1c1.7,2.8,5.9,6.2,8.1,7.1
		c-0.6-0.1-1.4,1.1-1.5,1.5c-2.1,4.9-8.6,16.6-11,20.1c-0.6,1.1-1.3,2.1-2.1,3c-3.5,4.4-8,7.6-12.6,8.2c-1.8,0.2-4.1,0.2-5.7-0.8
		c-3.1-1.7-12.6-9.9-14.4-12.5c-2.3-3.7-2.2-8.7-0.8-13.4c-1.1-0.3-5.5-0.6-5.5-1.1l-1.6-11.4c1.8,0.8,9.9,3.3,12.1,3.1
		c6.4-10.5,45.4-45.4,56.9-48.8c2.4,3.7,5.3,5.3,7.7,6.8c-0.5-0.3-1.7,1-1.8,1.2c-8.3,9.2-15.9,22.4-18.6,31.2c-0.5,1.3-0.4,3,0,3.5
		c-2.9-1.4-8.1-5.2-10.1-4.6C227.2,36.2,227.5,32.6,237.1,20.1z M194.2,71.9c0.2,2.2,4.7,7,7.2,6.9c5.1-0.1,9.4-3.3,13.2-8
		c0.7-0.9,1.6-2,2.1-3c1.3-1.9,5.3-9.2,7.6-13.4c-9.3,4.2-15.6,6.2-27,6.1C195.5,64.4,193.6,68.1,194.2,71.9z"/>
	<path class="st0" d="M257.7,39.5c4.6,3.2,9.8,5.3,14.5,1.7c0.4-0.2-0.3,0.4-0.5,0.7c-4.7,7.9-17,29-20.1,35.7
		c6.3-9.4,18.5-17.7,18.5-17.7l3.4,0.4c-13.4,9.9-23.4,26.2-23.8,25.3l-5.6-9.4c-6.3,4.8-8.9,11-9.9,9.4l-5.9-9.8l16-28.2
		c2-3.5-0.5-5.2-0.5-5.2C252,42.7,257.7,39.5,257.7,39.5z M259.8,47.5c0.3-0.5,0.4-1,0.6-1.6c-2.5-1.3-5-2.6-5.2-2
		c-5.3,9.1-16.2,27.7-19.1,33.9c3.2-3.3,6.9-5.2,10.2-6.4L259.8,47.5z"/>
	<path class="st0" d="M274.7,47.8c2-3.7-0.6-5.4-0.6-5.4c8.6,0.5,14.4-2.9,14.4-2.9l-5.2,8.9c4.9-4.1,9.2-7.2,9.2-7.2
		c3.7,1.9,7.9,1.5,10.6-0.1c0,0-16.6,27.9-20.6,36.4c6.3-9.4,18.5-17.8,18.5-17.8l3.4,0.5c-13.3,9.9-23.3,26.2-23.9,25.3l-5.9-9.9
		l16.1-28.2c0.2-0.5,0.5-1,0.5-1.6v-0.1c-6.1,4.9-11.1,10.6-14.8,14.8l-3.3,5.8l-10.6,19.1l-4.4-8.3
		C263.6,67.6,269.1,57.7,274.7,47.8z"/>
	<path class="st0" d="M301.2,100.6c-5.6,4.2-11.4,8.6-15.5,12.6l-8.2-15.3l0.6-1.1c2.1-3.6-0.5-5.2-0.5-5.2
		c8.3,0.5,13.8-2.8,13.8-2.8l-6.9,12.4l3.3,6.3l17-30.8c-5.8,4.6-8.5,10.5-9.4,8.9l-5.9-9.8l16-28.2c2-3.5-0.5-5.2-0.5-5.2
		c8.3,0.5,13.9-2.8,13.9-2.8c4.6,3.2,9.8,5.3,14.4,1.7c0.4-0.2-0.2,0.4-0.4,0.7l-16,28.8c3.3-2.7,6.8-5.2,8.8-6.8c3-2.5,5.2-4,5.2-4
		l3.4,0.4c-1.8,1.4-3.8,2.9-5.4,4.5c-5.4,5-12.9,11.3-18.1,17L301.2,100.6z M316.4,43.9c-5.3,9.1-16.2,27.7-19.1,33.9
		c3.2-3.3,6.8-5.2,10.2-6.4l13.6-23.9c0.3-0.5,0.4-1,0.6-1.6C319.2,44.6,316.7,43.3,316.4,43.9z"/>
	<path class="st0" d="M336.8,47.7c2-3.8-0.6-5.4-0.6-5.4c8.6,0.5,13.8-2.6,13.8-2.6c3.3,3.8,8.6,4.7,11.7,2.9c0,0-3.7,6.1-6.2,10.5
		c-0.6,1,0.4,1.5,0.6,1.4l-11.7,3.4l6.7-12.3l-2.8-3.2l-7.8,14c2.9,3.5,7.5,5.2,10.7,5.9l-4,7.3c1-0.6,2.1-1.1,3.1-1.7
		c1.9-1.1,3.7-2.2,5.2-3.4c3.2-2.7,5.6-4.3,5.6-4.3l3.3,0.5c-3.8,2.8-6.8,6.2-10.3,8.8c-2.8,2-6.2,3.7-9.6,5l-1.8,3.5
		c-5.4,0.9-14.5,4.4-17.1,8c0,0-2.2-7.9-4.9-9.9l9.4-16.3c0.8-1.6,1.2-2.4,1.2-4l6.1,6.1l-10.4,18.9c1.4-1.6,4.7-3.5,8.8-5.2
		l6.4-12.3c-5.2-3.6-9.2-8.5-9.2-8.6L336.8,47.7z"/>
</g>
</svg>
